<?xml version="1.0" encoding="UTF-8" standalone="no"?><svg xmlns="http://www.w3.org/2000/svg" xmlns:xlink="http://www.w3.org/1999/xlink" contentScriptType="application/ecmascript" contentStyleType="text/css" height="362px" preserveAspectRatio="none" style="width:259px;height:362px;" version="1.1" viewBox="0 0 259 362" width="259px" zoomAndPan="magnify"><defs><filter height="300%" id="f1co7i0mtamhax" width="300%" x="-1" y="-1"><feGaussianBlur result="blurOut" stdDeviation="2.0"/><feColorMatrix in="blurOut" result="blurOut2" type="matrix" values="0 0 0 0 0 0 0 0 0 0 0 0 0 0 0 0 0 0 .4 0"/><feOffset dx="4.0" dy="4.0" in="blurOut2" result="blurOut3"/><feBlend in="SourceGraphic" in2="blurOut3" mode="normal"/></filter></defs><g><ellipse cx="117.5" cy="18" fill="#000000" filter="url(#f1co7i0mtamhax)" rx="10" ry="10" style="stroke: none; stroke-width: 1.0;"/><rect fill="#FEFECE" filter="url(#f1co7i0mtamhax)" height="235.6094" rx="12.5" ry="12.5" style="stroke: #A80036; stroke-width: 1.5;" width="211" x="12" y="88"/><rect fill="#FFFFFF" height="202" rx="12.5" ry="12.5" style="stroke: #FFFFFF; stroke-width: 1.0;" width="205" x="15" y="118.6094"/><line style="stroke: #A80036; stroke-width: 1.5;" x1="12" x2="223" y1="115.6094" y2="115.6094"/><text fill="#000000" font-family="sans-serif" font-size="14" lengthAdjust="spacingAndGlyphs" textLength="99" x="68" y="107.5332">HelloStateChart</text><ellipse cx="106.5" cy="298.6094" fill="none" filter="url(#f1co7i0mtamhax)" rx="10" ry="10" style="stroke: #000000; stroke-width: 1.0;"/><ellipse cx="107" cy="299.1094" fill="#000000" rx="6" ry="6" style="stroke: none; stroke-width: 1.0;"/><ellipse cx="106.5" cy="138.6094" fill="#000000" filter="url(#f1co7i0mtamhax)" rx="10" ry="10" style="stroke: none; stroke-width: 1.0;"/><rect fill="#FEFECE" filter="url(#f1co7i0mtamhax)" height="67.7969" rx="12.5" ry="12.5" style="stroke: #A80036; stroke-width: 1.5;" width="167" x="23" y="184.6094"/><line style="stroke: #A80036; stroke-width: 1.5;" x1="23" x2="190" y1="212.2188" y2="212.2188"/><text fill="#000000" font-family="sans-serif" font-size="14" lengthAdjust="spacingAndGlyphs" textLength="72" x="70.5" y="204.1426">HelloState1</text><text fill="#000000" font-family="sans-serif" font-size="12" lengthAdjust="spacingAndGlyphs" textLength="147" x="28" y="229.6758">entry / println "Hello World!"</text><text fill="#000000" font-family="sans-serif" font-size="12" lengthAdjust="spacingAndGlyphs" textLength="0" x="31" y="244.7695"/><!--link HelloState1 to *end*HelloStateChart--><path d="M106.5,252.6884 C106.5,263.2141 106.5,274.3288 106.5,282.8691 " fill="none" id="HelloState1-*end*HelloStateChart" style="stroke: #A80036; stroke-width: 1.0;"/><polygon fill="#A80036" points="106.5,288.3314,110.5,279.3314,106.5,283.3314,102.5,279.3314,106.5,288.3314" style="stroke: #A80036; stroke-width: 1.0;"/><!--link *start*HelloStateChart to HelloState1--><path d="M106.5,148.8634 C106.5,156.4924 106.5,167.8594 106.5,179.1654 " fill="none" id="*start*HelloStateChart-HelloState1" style="stroke: #A80036; stroke-width: 1.0;"/><polygon fill="#A80036" points="106.5,184.3414,110.5,175.3414,106.5,179.3414,102.5,175.3414,106.5,184.3414" style="stroke: #A80036; stroke-width: 1.0;"/><!--link *start to HelloStateChart--><path d="M117.5,28.224 C117.5,39.4 117.5,59.596 117.5,82.449 " fill="none" id="*start-HelloStateChart" style="stroke: #A80036; stroke-width: 1.0;"/><polygon fill="#A80036" points="117.5,87.677,121.5,78.677,117.5,82.677,113.5,78.677,117.5,87.677" style="stroke: #A80036; stroke-width: 1.0;"/><text fill="#000000" font-family="sans-serif" font-size="14" lengthAdjust="spacingAndGlyphs" textLength="247" x="0" y="348.5332">Behavior of thing HelloComponentType</text><!--
@startuml
skinparam defaultTextAlignment left
caption Behavior of thing HelloComponentType
[*] - -> HelloStateChart
state HelloStateChart{
state HelloState1{
HelloState1 : entry / println "Hello World!"\n
}
HelloState1 - -> [*]
[*] - -> HelloState1
}
@enduml

PlantUML version 1.2018.09(Fri Jul 27 18:58:18 CEST 2018)
(EPL source distribution)
Java Runtime: Java(TM) SE Runtime Environment
JVM: Java HotSpot(TM) 64-Bit Server VM
Java Version: 1.8.0_161-b12
Operating System: Windows 10
OS Version: 10.0
Default Encoding: Cp1252
Language: en
Country: GB
--></g></svg>