<?xml version="1.0" encoding="UTF-8" standalone="no"?><svg xmlns="http://www.w3.org/2000/svg" xmlns:xlink="http://www.w3.org/1999/xlink" contentScriptType="application/ecmascript" contentStyleType="text/css" height="102px" preserveAspectRatio="none" style="width:226px;height:102px;" version="1.1" viewBox="0 0 226 102" width="226px" zoomAndPan="magnify"><defs><filter height="300%" id="fuidzi6u3a13b" width="300%" x="-1" y="-1"><feGaussianBlur result="blurOut" stdDeviation="2.0"/><feColorMatrix in="blurOut" result="blurOut2" type="matrix" values="0 0 0 0 0 0 0 0 0 0 0 0 0 0 0 0 0 0 .4 0"/><feOffset dx="4.0" dy="4.0" in="blurOut2" result="blurOut3"/><feBlend in="SourceGraphic" in2="blurOut3" mode="normal"/></filter></defs><g><!--class HelloComponentType--><rect fill="#FEFECE" filter="url(#fuidzi6u3a13b)" height="56.1875" id="HelloComponentType" style="stroke: #A80036; stroke-width: 1.5;" width="152" x="25" y="8"/><ellipse cx="40" cy="28.0938" fill="#5BBF09" rx="11" ry="11" style="stroke: #A80036; stroke-width: 1.0;"/><path d="M40.9219,25.4844 L40.9219,32.1406 L42.0781,32.1406 Q42.6875,32.1406 42.9453,32.375 Q43.2031,32.6094 43.2031,33 Q43.2031,33.375 42.9453,33.6094 Q42.6875,33.8438 42.0781,33.8438 L38.0938,33.8438 Q37.4688,33.8438 37.2109,33.6094 Q36.9531,33.375 36.9531,32.9844 Q36.9531,32.6094 37.2109,32.375 Q37.4688,32.1406 38.0938,32.1406 L39.2188,32.1406 L39.2188,25.4844 L37.375,25.4844 L37.375,27.0938 Q37.375,27.7031 37.1406,27.9688 Q36.9063,28.2344 36.5313,28.2344 Q36.1563,28.2344 35.9219,27.9688 Q35.6875,27.7031 35.6875,27.0938 L35.6875,23.7813 L44.5,23.7813 L44.5,27.0938 Q44.5,27.7031 44.2578,27.9688 Q44.0156,28.2344 43.6406,28.2344 Q43.2656,28.2344 43.0313,27.9688 Q42.7969,27.7031 42.7969,27.0938 L42.7969,25.4844 L40.9219,25.4844 Z "/><text fill="#000000" font-family="sans-serif" font-size="12" font-style="italic" lengthAdjust="spacingAndGlyphs" textLength="35" x="96.5" y="25.457">«PIM»</text><text fill="#000000" font-family="sans-serif" font-size="12" lengthAdjust="spacingAndGlyphs" textLength="120" x="54" y="40.5508">HelloComponentType</text><line style="stroke: #A80036; stroke-width: 1.5;" x1="26" x2="176" y1="48.1875" y2="48.1875"/><line style="stroke: #A80036; stroke-width: 1.5;" x1="26" x2="176" y1="56.1875" y2="56.1875"/><text fill="#000000" font-family="sans-serif" font-size="14" lengthAdjust="spacingAndGlyphs" textLength="214" x="0" y="88.5332">Things used in configuration Hello</text><!--
@startuml
caption Things used in configuration Hello
class HelloComponentType <<(T,#5BBF09)PIM>> {
}
@enduml

PlantUML version 1.2018.09(Fri Jul 27 18:58:18 CEST 2018)
(EPL source distribution)
Java Runtime: Java(TM) SE Runtime Environment
JVM: Java HotSpot(TM) 64-Bit Server VM
Java Version: 1.8.0_161-b12
Operating System: Windows 10
OS Version: 10.0
Default Encoding: Cp1252
Language: en
Country: GB
--></g></svg>